<?xml version="1.0" encoding="UTF-8"?>
<!-- Generated by Pixelmator Pro 3.6.17 -->
<svg width="1024" height="1024" viewBox="0 0 1024 1024" xmlns="http://www.w3.org/2000/svg">
    <path id="path1" fill="#8a0000" stroke="none" d="M 899.099976 869.599976 L 846.099976 564 L 864 564 C 878.400024 564 890 552.400024 890 538 L 890 346 C 890 331.599976 878.400024 320 864 320 L 618 320 L 618 138 C 618 123.599976 606.400024 112 592 112 L 432 112 C 417.600006 112 406 123.599976 406 138 L 406 320 L 160 320 C 145.600006 320 134 331.599976 134 346 L 134 538 C 134 552.400024 145.600006 564 160 564 L 177.899994 564 L 124.900002 869.599976 C 124.599998 871.099976 124.5 872.599976 124.5 874 C 124.5 888.400024 136.100006 900 150.5 900 L 873.5 900 C 875 900 876.5 899.900024 877.900024 899.599976 C 892.099976 897.200012 901.599976 883.700012 899.099976 869.599976 M 204 390 L 476 390 L 476 182 L 548 182 L 548 390 L 820 390 L 820 494 L 204 494 Z M 672 830 L 672 674 C 672 669.599976 668.400024 666 664 666 L 616 666 C 611.599976 666 608 669.599976 608 674 L 608 830 L 416 830 L 416 674 C 416 669.599976 412.399994 666 408 666 L 360 666 C 355.600006 666 352 669.599976 352 674 L 352 830 L 202.800003 830 L 247.899994 570 L 776 570 L 821.099976 830 Z"/>
</svg>
