<?xml version="1.0" encoding="UTF-8"?>
<!-- Generated by Pixelmator Pro 3.6.17 -->
<svg width="512" height="512" viewBox="0 0 512 512" xmlns="http://www.w3.org/2000/svg">
    <path id="path1" fill="#068a00" stroke="none" d="M 256.35199 93.279999 C 190.421997 93.279999 130.707993 97.682007 87.961998 104.682007 C 66.587997 108.182007 49.404999 112.385986 38.278999 116.692017 C 32.716 118.846985 28.688999 121.083984 26.655001 122.712006 C 26.018 123.221985 25.934999 123.362 25.705 123.609009 C 25.934999 123.854004 26.017 123.998993 26.655001 124.509003 C 28.688999 126.135986 32.715 128.372986 38.278 130.526001 C 49.403 134.833008 66.585999 139.037994 87.958 142.537994 C 130.705994 149.537994 190.417999 153.937988 256.350006 153.937988 C 322.279999 153.937988 381.993011 149.537994 424.73999 142.537994 C 446.114014 139.037994 463.296997 134.832001 474.421997 130.524994 C 479.984009 128.372009 484.009003 126.13501 486.041992 124.507996 C 486.682007 123.997986 486.765015 123.852997 486.993988 123.608002 C 486.764008 123.360992 486.681 123.218018 486.044006 122.708008 C 484.009003 121.082001 479.984009 118.845001 474.421997 116.69101 C 463.296997 112.384003 446.114014 108.179016 424.73999 104.681 C 381.993011 97.681 322.279999 93.277008 256.350006 93.277008 Z M 256 102.463013 C 288.908905 102.46347 321.053528 103.462524 348.246002 105.330017 L 348.246002 132.588013 C 321.073914 134.461853 288.927704 135.467224 256 135.473022 C 165.533249 135.4729 92.192963 128.084595 92.181999 118.970001 C 92.174103 114.592102 109.429901 110.39325 140.152527 107.297333 C 170.875168 104.201416 212.547424 102.462036 256 102.462006 Z M 366.246002 106.785004 C 400.306183 109.907227 419.750824 114.32959 419.817993 118.968994 C 419.745239 123.607727 400.301056 128.029236 366.246002 131.151001 L 366.246002 106.783997 Z M 25 144.39502 L 25 250.610992 L 25.153999 250.610992 L 25.153999 259.196014 C 25.169001 258.674011 25.48 259.963989 29.131001 262.175995 C 33.405998 264.763 40.875 267.806 50.791 270.618011 C 54.229 271.593994 57.984001 272.548004 62.000999 273.480011 L 62.000999 155.955994 C 50.160999 153.372009 40.030998 150.505981 31.781 147.312012 C 29.484444 146.426941 27.222773 145.453888 25.000999 144.39502 Z M 487 144.731995 C 485.003876 145.660706 482.976685 146.52124 480.921997 147.312012 C 467.738007 152.416016 449.743988 156.684998 427.649994 160.302002 C 383.463013 167.537994 323.079987 171.942017 256.35199 171.942017 C 195.908005 171.942017 140.712006 168.320007 98 162.261993 L 98 280.079987 C 109.879997 281.812988 122.956001 283.373993 137.100006 284.709991 C 210.727005 291.670013 301.976013 291.670013 375.604004 284.709991 C 412.416992 281.230011 442.082001 276.23999 461.911987 270.617004 C 471.826996 267.804993 479.298004 264.761993 483.571991 262.174011 C 485.516998 260.996002 486.48999 260.093994 487 259.570007 Z M 48 288.514008 L 48 496 L 86 496 L 86 296.459991 C 71.43 294.100006 58.708 291.440002 48 288.514008 M 464 288.70401 C 442.570007 294.48999 413.209991 299.235992 377.296997 302.631012 C 302.290009 309.722992 210.412994 309.722992 135.406998 302.631012 C 130.828995 302.199005 126.362 301.740997 122 301.266998 L 122 496 L 464 496 Z"/>
</svg>
